<svg xmlns="http://www.w3.org/2000/svg" width="760" height="640" viewBox="0 0 760 640" role="img" aria-label="Arena movement path">
  <style>
    text { font-family: Arial, Helvetica, sans-serif; fill: #0f172a; }
    .title { font-size: 26px; font-weight: 700; }
    .label { font-size: 15px; }
    .small { font-size: 14px; fill: #334155; }
    .tiny { font-size: 10px; fill: #334155; }
  </style>
  <rect width="100%" height="100%" fill="#ffffff"/>
  <text x="40" y="34" class="title">Arena movement path</text>
  
    <rect x="70" y="60" width="620" height="480" fill="#f8fafc" stroke="#cbd5e1"/>
    <path d="M 222.628 540 L 222.628 540 L 225.333 538.545 L 225.333 538.545 L 234.876 531.232 L 234.876 531.232 L 247.169 523.837 L 247.169 523.837 L 260.962 516.259 L 260.962 516.259 L 275.575 508.422 L 275.575 508.422 L 290.636 500.26 L 290.636 500.26 L 305.94 491.708 L 305.94 491.708 L 319.744 484.773 L 319.744 484.773 L 334.363 475.242 L 334.363 475.242 L 349.426 465.155 L 349.426 465.155 L 364.733 454.398 L 364.733 454.398 L 378.537 445.49 L 378.537 445.49 L 386.075 445.49 L 386.075 445.49 L 395.637 434.894 L 395.637 434.894 L 406.306 423.695 L 406.306 423.695 L 419.213 407.695 L 419.213 407.695 L 433.342 389.25 L 433.342 389.25 L 446.503 371.274 L 446.503 371.274 L 460.77 334.004 L 460.77 334.004 L 461.479 300.04 L 461.479 300.04 L 454.784 298.846 L 454.784 298.846 L 458.211 299.479 L 458.211 299.479 L 467.163 304.983 L 467.163 304.983 L 472.051 304.983 L 472.051 304.983 L 467.638 302.921 L 467.638 302.921 L 472.311 302.76 L 472.311 302.76 L 467.78 302.089 L 467.78 302.089 L 458.225 301.217 L 458.225 301.217 L 445.926 301.077 L 445.926 301.077 L 432.128 301.078 L 432.128 301.078 L 417.514 301.078 L 417.514 301.078 L 402.452 301.078 L 402.452 301.078 L 388.781 301.078 L 388.781 301.078 L 374.235 301.078 L 374.235 301.078 L 366.293 301.078 L 366.293 301.078 L 356.509 301.078 L 356.509 301.078 L 344.085 301.078 L 344.085 301.078 L 330.22 301.078 L 330.22 301.078 L 315.567 301.078 L 315.567 301.078 L 300.486 301.078 L 300.486 301.078 L 285.169 301.078 L 285.169 301.078 L 269.725 301.078 L 269.725 301.078 L 254.21 301.078 L 254.21 301.078 L 240.292 301.078 L 240.292 301.078 L 225.611 301.078 L 225.611 301.078 L 217.595 301.078 L 217.595 301.078 L 207.77 301.078 L 207.77 301.078 L 195.325 301.078 L 195.325 301.078 L 181.448 301.078 L 181.448 301.078 L 166.789 301.078 L 166.789 301.078 L 151.703 301.078 L 151.703 301.078 L 136.385 301.078 L 136.385 301.078 L 122.574 301.078 L 122.574 301.078 L 107.951 301.078 L 107.951 301.078 L 94.519 301.078 L 94.519 301.078 L 81.738 301.078 L 81.738 301.078 L 74.76 301.078" fill="none" stroke="#2563eb" stroke-width="4"/>
    <path d="M 690 60 L 688.584 61.455 L 688.584 61.455 L 685.878 62.913 L 685.878 62.913 L 676.335 70.267 L 676.335 70.267 L 664.042 77.751 L 664.042 77.751 L 650.249 85.455 L 650.249 85.455 L 635.636 93.45 L 635.636 93.45 L 620.576 101.8 L 620.576 101.8 L 606.905 108.551 L 606.905 108.551 L 593.994 115.688 L 593.994 115.688 L 581.497 123.232 L 581.497 123.232 L 569.226 131.258 L 569.226 131.258 L 557.078 139.866 L 557.078 139.866 L 544.998 149.191 L 544.998 149.191 L 538.403 149.191 L 538.403 149.191 L 527.72 163.363 L 527.72 163.363 L 514.806 178.547 L 514.806 178.547 L 500.673 195.523 L 500.673 195.523 L 485.875 215.898 L 485.875 215.898 L 470.713 243.844 L 470.713 243.844 L 455.356 308.036 L 455.356 308.036 L 454.053 298.788 L 454.053 298.788 L 460.423 299.35 L 460.423 299.35 L 458.453 299.668 L 458.453 299.668 L 462.826 302.992 L 462.826 302.992 L 465.213 302.992 L 465.213 302.992 L 473.598 302.785 L 473.598 302.785 L 471.095 302.644 L 471.095 302.644 L 462.646 301.457 L 462.646 301.457 L 450.951 301.073 L 450.951 301.073 L 437.484 301.078 L 437.484 301.078 L 423.049 301.078 L 423.049 301.078 L 409.72 301.078 L 409.72 301.078 L 395.361 301.078 L 395.361 301.078 L 382.073 301.078 L 382.073 301.078 L 367.737 301.078 L 367.737 301.078 L 359.909 301.078 L 359.909 301.078 L 348.553 301.078 L 348.553 301.078 L 335.271 301.078 L 335.271 301.078 L 320.937 301.078 L 320.937 301.078 L 306.029 301.078 L 306.029 301.078 L 290.808 301.078 L 290.808 301.078 L 275.415 301.078 L 275.415 301.078 L 261.563 301.078 L 261.563 301.078 L 246.918 301.078 L 246.918 301.078 L 233.474 301.078 L 233.474 301.078 L 219.052 301.078 L 219.052 301.078 L 211.178 301.078 L 211.178 301.078 L 199.797 301.078 L 199.797 301.078 L 186.501 301.078 L 186.501 301.078 L 172.16 301.078 L 172.16 301.078 L 157.248 301.078 L 157.248 301.078 L 142.024 301.078 L 142.024 301.078 L 126.63 301.078 L 126.63 301.078 L 111.143 301.078 L 111.143 301.078 L 97.24 301.078 L 97.24 301.078 L 84.201 301.078 L 84.201 301.078 L 70 301.078 L 70 301.078" fill="none" stroke="#dc2626" stroke-width="4"/>
    <rect x="520" y="67" width="16" height="16" fill="#2563eb"/><text x="544" y="80" class="small">Alpha path</text><rect x="520" y="93" width="16" height="16" fill="#dc2626"/><text x="544" y="106" class="small">Bravo path</text>
    <text x="380" y="584" text-anchor="middle" class="small">X position</text>
    <text x="26" y="300" transform="rotate(-90 26 300)" text-anchor="middle" class="small">Z position</text>
  
</svg>
