<svg xmlns="http://www.w3.org/2000/svg" width="760" height="640" viewBox="0 0 760 640" role="img" aria-label="Arena movement path">
  <style>
    text { font-family: Arial, Helvetica, sans-serif; fill: #0f172a; }
    .title { font-size: 26px; font-weight: 700; }
    .label { font-size: 15px; }
    .small { font-size: 14px; fill: #334155; }
    .tiny { font-size: 10px; fill: #334155; }
  </style>
  <rect width="100%" height="100%" fill="#ffffff"/>
  <text x="40" y="34" class="title">Arena movement path</text>
  
    <rect x="70" y="60" width="620" height="480" fill="#f8fafc" stroke="#cbd5e1"/>
    <path d="M 70 540 L 70 540 L 73.285 539.834 L 73.285 539.834 L 84.875 538.999 L 84.875 538.999 L 99.803 537.701 L 99.803 537.701 L 116.552 536.144 L 116.552 536.144 L 134.296 534.443 L 134.296 534.443 L 152.583 532.662 L 152.583 532.662 L 171.166 530.836 L 171.166 530.836 L 189.911 528.984 L 189.911 528.984 L 208.744 527.118 L 208.744 527.118 L 227.626 525.244 L 227.626 525.244 L 246.533 523.365 L 246.533 523.365 L 263.471 521.68 L 263.471 521.68 L 281.317 519.905 L 281.317 519.905 L 297.676 518.277 L 297.676 518.277 L 313.221 516.73 L 313.221 516.73 L 328.324 515.227 L 328.324 515.227 L 345.168 513.55 L 345.168 513.55 L 360.979 511.976 L 360.979 511.976 L 376.226 510.459 L 376.226 510.459 L 393.149 508.774 L 393.149 508.774 L 393.791 508.71 L 393.791 508.71 L 387.527 509.368 L 387.527 509.368 L 377.481 510.228 L 377.481 510.228 L 378.592 509.84 L 378.592 509.84 L 379.198 509.84 L 379.198 509.84 L 371.05 508.049 L 371.05 508.049 L 358.127 505.253 L 358.127 505.253 L 359.61 505.13 L 359.61 505.13 L 364.456 496.722 L 364.456 496.722 L 372.376 484.602 L 372.376 484.602 L 381.751 470.272 L 381.751 470.272 L 391.816 454.653 L 391.816 454.653 L 402.323 438.381 L 402.323 438.381 L 413.088 421.766 L 413.088 421.766 L 423.979 404.951 L 423.979 404.951 L 429.926 395.77 L 429.926 395.77 L 438.172 383.004 L 438.172 383.004 L 447.688 368.291 L 447.688 368.291 L 457.896 352.515 L 457.896 352.515 L 468.48 336.156 L 468.48 336.156 L 479.267 319.478 L 479.267 319.478 L 490.167 302.626 L 490.167 302.626 L 501.129 285.681 L 501.129 285.681 L 512.125 268.683 L 512.125 268.683 L 521.982 253.445 L 521.982 253.445 L 532.374 237.379 L 532.374 237.379 L 538.048 228.608 L 538.048 228.608 L 546.156 216.073 L 546.156 216.073 L 555.594 201.484 L 555.594 201.484 L 565.756 185.773 L 565.756 185.773 L 576.315 169.45 L 576.315 169.45 L 587.091 152.793 L 587.091 152.793 L 597.984 135.953 L 597.984 135.953 L 608.942 119.013 L 608.942 119.013 L 619.935 102.018 L 619.935 102.018 L 630.947 84.994 L 630.947 84.994 L 640.814 69.742 L 640.814 69.742 L 646.201 61.413" fill="none" stroke="#2563eb" stroke-width="4"/>
    <path d="M 690 480.146 L 688.28 480.312 L 688.28 480.312 L 684.995 480.478 L 684.995 480.478 L 673.405 481.317 L 673.405 481.317 L 658.478 482.62 L 658.478 482.62 L 641.729 484.181 L 641.729 484.181 L 623.985 485.885 L 623.985 485.885 L 605.698 487.668 L 605.698 487.668 L 587.115 489.496 L 587.115 489.496 L 568.371 491.349 L 568.371 491.349 L 549.537 493.216 L 549.537 493.216 L 532.64 494.894 L 532.64 494.894 L 516.8 496.468 L 516.8 496.468 L 501.538 497.985 L 501.538 497.985 L 486.59 499.472 L 486.59 499.472 L 478.429 500.284 L 478.429 500.284 L 465.374 501.583 L 465.374 501.583 L 449.648 503.149 L 449.648 503.149 L 432.463 504.86 L 432.463 504.86 L 414.482 506.65 L 414.482 506.65 L 396.066 508.483 L 396.066 508.483 L 377.412 510.341 L 377.412 510.341 L 375.826 510.499 L 375.826 510.499 L 383.56 509.668 L 383.56 509.668 L 379.179 510.007 L 379.179 510.007 L 368.429 507.626 L 368.429 507.626 L 362.56 506.325 L 362.56 506.325 L 365.886 506.941 L 365.886 506.941 L 359.233 505.435 L 359.233 505.435 L 362.56 498.985 L 362.56 498.985 L 370.232 488.476 L 370.232 488.476 L 378.915 474.617 L 378.915 474.617 L 388.696 459.328 L 388.696 459.328 L 399.15 443.319 L 399.15 443.319 L 409.846 426.815 L 409.846 426.815 L 419.521 411.831 L 419.521 411.831 L 429.819 395.909 L 429.819 395.909 L 435.442 387.216 L 435.442 387.216 L 443.53 374.73 L 443.53 374.73 L 452.95 360.163 L 452.95 360.163 L 463.103 344.464 L 463.103 344.464 L 473.658 328.148 L 473.658 328.148 L 484.431 311.495 L 484.431 311.495 L 495.323 294.657 L 495.323 294.657 L 506.28 277.718 L 506.28 277.718 L 517.273 260.724 L 517.273 260.724 L 527.129 245.488 L 527.129 245.488 L 537.52 229.424 L 537.52 229.424 L 543.194 220.653 L 543.194 220.653 L 551.302 208.118 L 551.302 208.118 L 560.739 193.53 L 560.739 193.53 L 570.902 177.819 L 570.902 177.819 L 581.461 161.496 L 581.461 161.496 L 592.236 144.839 L 592.236 144.839 L 603.129 127.998 L 603.129 127.998 L 614.087 111.059 L 614.087 111.059 L 625.08 94.064 L 625.08 94.064 L 636.093 77.04 L 636.093 77.04 L 647.116 60 L 647.116 60" fill="none" stroke="#dc2626" stroke-width="4"/>
    <rect x="520" y="67" width="16" height="16" fill="#2563eb"/><text x="544" y="80" class="small">Alpha path</text><rect x="520" y="93" width="16" height="16" fill="#dc2626"/><text x="544" y="106" class="small">Bravo path</text>
    <text x="380" y="584" text-anchor="middle" class="small">X position</text>
    <text x="26" y="300" transform="rotate(-90 26 300)" text-anchor="middle" class="small">Z position</text>
  
</svg>
