<svg xmlns="http://www.w3.org/2000/svg" width="920" height="520" viewBox="0 0 920 520" role="img" aria-label="Distance over time">
  <style>
    text { font-family: Arial, Helvetica, sans-serif; fill: #0f172a; }
    .title { font-size: 26px; font-weight: 700; }
    .label { font-size: 15px; }
    .small { font-size: 14px; fill: #334155; }
    .tiny { font-size: 10px; fill: #334155; }
  </style>
  <rect width="100%" height="100%" fill="#ffffff"/>
  <text x="40" y="34" class="title">Distance over time</text>
  
    
    <line x1="70" y1="440" x2="860" y2="440" stroke="#64748b" stroke-width="2"/>
    <line x1="70" y1="50" x2="70" y2="440" stroke="#64748b" stroke-width="2"/>
    <text x="465" y="488" text-anchor="middle" class="small">Tick</text>
    <text x="28" y="245" transform="rotate(-90 28 245)" text-anchor="middle" class="small">Blocks apart</text>
  
    <line x1="70" y1="310.12774320340645" x2="860" y2="310.12774320340645" stroke="#16a34a" stroke-width="2" stroke-dasharray="8 8"/>
    <path d="M 83.39 50 L 96.78 54.13 L 110.169 68.736 L 123.559 87.557 L 136.949 108.677 L 150.339 131.074 L 163.729 154.111 L 177.119 177.573 L 190.508 201.248 L 203.898 225.008 L 217.288 247.576 L 230.678 269.505 L 244.068 289.817 L 257.458 310.511 L 270.847 325.968 L 284.237 344.022 L 297.627 363.439 L 311.017 384.943 L 324.407 406.233 L 337.797 427.481 L 351.186 430.079 L 364.576 428.673 L 377.966 437.488 L 391.356 438.935 L 404.746 433.485 L 418.136 429.355 L 431.525 436.679 L 444.915 439.319 L 458.305 436.04 L 471.695 434.039 L 485.085 432.974 L 498.475 432.378 L 511.864 432.08 L 525.254 431.867 L 538.644 433.059 L 552.034 433.655 L 565.424 433.996 L 578.814 434.209 L 592.203 434.294 L 605.593 434.379 L 618.983 434.379 L 632.373 434.422 L 645.763 434.422 L 659.153 434.422 L 672.542 434.422 L 685.932 434.422 L 699.322 434.422 L 712.712 434.422 L 726.102 434.422 L 739.492 434.422 L 752.881 434.422 L 766.271 434.422 L 779.661 434.422 L 793.051 434.422 L 806.441 434.422 L 819.831 434.422 L 833.22 434.422 L 846.61 433.187 L 860 439.021" fill="none" stroke="#7c3aed" stroke-width="4"/>
    <text x="730" y="300.12774320340645" class="small">attack reach</text>
  
</svg>
