<svg xmlns="http://www.w3.org/2000/svg" width="920" height="520" viewBox="0 0 920 520" role="img" aria-label="Distance over time">
  <style>
    text { font-family: Arial, Helvetica, sans-serif; fill: #0f172a; }
    .title { font-size: 26px; font-weight: 700; }
    .label { font-size: 15px; }
    .small { font-size: 14px; fill: #334155; }
    .tiny { font-size: 10px; fill: #334155; }
  </style>
  <rect width="100%" height="100%" fill="#ffffff"/>
  <text x="40" y="34" class="title">Distance over time</text>
  
    
    <line x1="70" y1="440" x2="860" y2="440" stroke="#64748b" stroke-width="2"/>
    <line x1="70" y1="50" x2="70" y2="440" stroke="#64748b" stroke-width="2"/>
    <text x="465" y="488" text-anchor="middle" class="small">Tick</text>
    <text x="28" y="245" transform="rotate(-90 28 245)" text-anchor="middle" class="small">Blocks apart</text>
  
    <line x1="70" y1="298.10569008708103" x2="860" y2="298.10569008708103" stroke="#16a34a" stroke-width="2" stroke-dasharray="8 8"/>
    <path d="M 83.621 50 L 97.241 54.559 L 110.862 70.517 L 124.483 91.08 L 138.103 114.201 L 151.724 138.672 L 165.345 163.841 L 178.966 188.126 L 192.586 210.457 L 206.207 233.16 L 219.828 256.049 L 233.448 279.031 L 247.069 300.664 L 260.69 312.528 L 274.31 329.462 L 287.931 349.188 L 301.552 371.844 L 315.172 396.036 L 328.793 419.716 L 342.414 435.487 L 356.034 433.766 L 369.655 435.301 L 383.276 439.814 L 396.897 436.371 L 410.517 434.278 L 424.138 435.022 L 437.759 438.977 L 451.379 435.72 L 465 433.906 L 478.621 432.929 L 492.241 432.417 L 505.862 433.487 L 519.483 434.045 L 533.103 434.371 L 546.724 434.557 L 560.345 434.65 L 573.966 433.347 L 587.586 432.603 L 601.207 432.231 L 614.828 431.998 L 628.448 431.905 L 642.069 431.859 L 655.69 433.161 L 669.31 433.906 L 682.931 434.278 L 696.552 434.51 L 710.172 434.65 L 723.793 433.347 L 737.414 432.603 L 751.034 432.231 L 764.655 431.998 L 778.276 431.905 L 791.897 431.859 L 805.517 430.416 L 819.138 431.021 L 832.759 431.347 L 846.379 430.184 L 860 435.999" fill="none" stroke="#7c3aed" stroke-width="4"/>
    <text x="730" y="288.10569008708103" class="small">attack reach</text>
  
</svg>
