<svg xmlns="http://www.w3.org/2000/svg" width="920" height="520" viewBox="0 0 920 520" role="img" aria-label="Health over time">
  <style>
    text { font-family: Arial, Helvetica, sans-serif; fill: #0f172a; }
    .title { font-size: 26px; font-weight: 700; }
    .label { font-size: 15px; }
    .small { font-size: 14px; fill: #334155; }
    .tiny { font-size: 10px; fill: #334155; }
  </style>
  <rect width="100%" height="100%" fill="#ffffff"/>
  <text x="40" y="34" class="title">Health over time</text>
  
    
    <line x1="70" y1="440" x2="860" y2="440" stroke="#64748b" stroke-width="2"/>
    <line x1="70" y1="50" x2="70" y2="440" stroke="#64748b" stroke-width="2"/>
    <text x="465" y="488" text-anchor="middle" class="small">Tick</text>
    <text x="28" y="245" transform="rotate(-90 28 245)" text-anchor="middle" class="small">Health</text>
  
    <path d="M 83.39 85.455 L 96.78 85.455 L 110.169 85.455 L 123.559 85.455 L 136.949 85.455 L 150.339 85.455 L 163.729 85.455 L 177.119 85.455 L 190.508 85.455 L 203.898 85.455 L 217.288 85.455 L 230.678 85.455 L 244.068 85.455 L 257.458 85.455 L 270.847 85.455 L 284.237 156.364 L 297.627 156.364 L 311.017 156.364 L 324.407 156.364 L 337.797 156.364 L 351.186 156.364 L 364.576 156.364 L 377.966 156.364 L 391.356 156.364 L 404.746 156.364 L 418.136 156.364 L 431.525 227.273 L 444.915 227.273 L 458.305 227.273 L 471.695 227.273 L 485.085 227.273 L 498.475 227.273 L 511.864 227.273 L 525.254 227.273 L 538.644 227.273 L 552.034 227.273 L 565.424 227.273 L 578.814 298.182 L 592.203 298.182 L 605.593 298.182 L 618.983 298.182 L 632.373 298.182 L 645.763 298.182 L 659.153 298.182 L 672.542 298.182 L 685.932 298.182 L 699.322 298.182 L 712.712 298.182 L 726.102 369.091 L 739.492 369.091 L 752.881 369.091 L 766.271 369.091 L 779.661 369.091 L 793.051 369.091 L 806.441 369.091 L 819.831 369.091 L 833.22 369.091 L 846.61 369.091 L 860 369.091" fill="none" stroke="#2563eb" stroke-width="4"/>
    <path d="M 83.39 85.455 L 96.78 85.455 L 110.169 85.455 L 123.559 85.455 L 136.949 85.455 L 150.339 85.455 L 163.729 85.455 L 177.119 85.455 L 190.508 85.455 L 203.898 85.455 L 217.288 85.455 L 230.678 85.455 L 244.068 85.455 L 257.458 85.455 L 270.847 156.364 L 284.237 156.364 L 297.627 156.364 L 311.017 156.364 L 324.407 156.364 L 337.797 156.364 L 351.186 156.364 L 364.576 156.364 L 377.966 156.364 L 391.356 156.364 L 404.746 156.364 L 418.136 227.273 L 431.525 227.273 L 444.915 227.273 L 458.305 227.273 L 471.695 227.273 L 485.085 227.273 L 498.475 227.273 L 511.864 227.273 L 525.254 227.273 L 538.644 227.273 L 552.034 227.273 L 565.424 298.182 L 578.814 298.182 L 592.203 298.182 L 605.593 298.182 L 618.983 298.182 L 632.373 298.182 L 645.763 298.182 L 659.153 298.182 L 672.542 298.182 L 685.932 298.182 L 699.322 298.182 L 712.712 369.091 L 726.102 369.091 L 739.492 369.091 L 752.881 369.091 L 766.271 369.091 L 779.661 369.091 L 793.051 369.091 L 806.441 369.091 L 819.831 369.091 L 833.22 369.091 L 846.61 369.091 L 860 369.091" fill="none" stroke="#dc2626" stroke-width="4"/>
    <rect x="665" y="57" width="16" height="16" fill="#2563eb"/><text x="689" y="70" class="small">Alpha health</text><rect x="665" y="83" width="16" height="16" fill="#dc2626"/><text x="689" y="96" class="small">Bravo health</text>
  
</svg>
