<svg xmlns="http://www.w3.org/2000/svg" width="920" height="520" viewBox="0 0 920 520" role="img" aria-label="Health over time">
  <style>
    text { font-family: Arial, Helvetica, sans-serif; fill: #0f172a; }
    .title { font-size: 26px; font-weight: 700; }
    .label { font-size: 15px; }
    .small { font-size: 14px; fill: #334155; }
    .tiny { font-size: 10px; fill: #334155; }
  </style>
  <rect width="100%" height="100%" fill="#ffffff"/>
  <text x="40" y="34" class="title">Health over time</text>
  
    
    <line x1="70" y1="440" x2="860" y2="440" stroke="#64748b" stroke-width="2"/>
    <line x1="70" y1="50" x2="70" y2="440" stroke="#64748b" stroke-width="2"/>
    <text x="465" y="488" text-anchor="middle" class="small">Tick</text>
    <text x="28" y="245" transform="rotate(-90 28 245)" text-anchor="middle" class="small">Health</text>
  
    <path d="M 83.621 103.182 L 97.241 103.182 L 110.862 103.182 L 124.483 103.182 L 138.103 103.182 L 151.724 103.182 L 165.345 103.182 L 178.966 103.182 L 192.586 103.182 L 206.207 103.182 L 219.828 103.182 L 233.448 103.182 L 247.069 103.182 L 260.69 103.182 L 274.31 174.091 L 287.931 174.091 L 301.552 174.091 L 315.172 174.091 L 328.793 174.091 L 342.414 174.091 L 356.034 174.091 L 369.655 174.091 L 383.276 174.091 L 396.897 174.091 L 410.517 174.091 L 424.138 245 L 437.759 245 L 451.379 245 L 465 245 L 478.621 245 L 492.241 245 L 505.862 245 L 519.483 245 L 533.103 245 L 546.724 245 L 560.345 245 L 573.966 315.909 L 587.586 315.909 L 601.207 315.909 L 614.828 315.909 L 628.448 315.909 L 642.069 315.909 L 655.69 315.909 L 669.31 315.909 L 682.931 315.909 L 696.552 315.909 L 710.172 315.909 L 723.793 386.818 L 737.414 386.818 L 751.034 386.818 L 764.655 386.818 L 778.276 386.818 L 791.897 386.818 L 805.517 386.818 L 819.138 386.818 L 832.759 386.818 L 846.379 386.818 L 860 386.818" fill="none" stroke="#2563eb" stroke-width="4"/>
    <path d="M 83.621 85.455 L 97.241 85.455 L 110.862 85.455 L 124.483 85.455 L 138.103 85.455 L 151.724 85.455 L 165.345 85.455 L 178.966 85.455 L 192.586 85.455 L 206.207 85.455 L 219.828 85.455 L 233.448 85.455 L 247.069 85.455 L 260.69 156.364 L 274.31 156.364 L 287.931 156.364 L 301.552 156.364 L 315.172 156.364 L 328.793 156.364 L 342.414 156.364 L 356.034 156.364 L 369.655 156.364 L 383.276 156.364 L 396.897 156.364 L 410.517 227.273 L 424.138 227.273 L 437.759 227.273 L 451.379 227.273 L 465 227.273 L 478.621 227.273 L 492.241 227.273 L 505.862 227.273 L 519.483 227.273 L 533.103 227.273 L 546.724 227.273 L 560.345 298.182 L 573.966 298.182 L 587.586 298.182 L 601.207 298.182 L 614.828 298.182 L 628.448 298.182 L 642.069 298.182 L 655.69 298.182 L 669.31 298.182 L 682.931 298.182 L 696.552 298.182 L 710.172 369.091 L 723.793 369.091 L 737.414 369.091 L 751.034 369.091 L 764.655 369.091 L 778.276 369.091 L 791.897 369.091 L 805.517 369.091 L 819.138 369.091 L 832.759 369.091 L 846.379 369.091 L 860 369.091" fill="none" stroke="#dc2626" stroke-width="4"/>
    <rect x="665" y="57" width="16" height="16" fill="#2563eb"/><text x="689" y="70" class="small">Alpha health</text><rect x="665" y="83" width="16" height="16" fill="#dc2626"/><text x="689" y="96" class="small">Bravo health</text>
  
</svg>
