<svg xmlns="http://www.w3.org/2000/svg" width="980" height="560" viewBox="0 0 980 560" role="img" aria-label="Final health by scenario">
  <style>
    text { font-family: Arial, Helvetica, sans-serif; fill: #0f172a; }
    .title { font-size: 26px; font-weight: 700; }
    .label { font-size: 15px; }
    .small { font-size: 14px; fill: #334155; }
    .tiny { font-size: 10px; fill: #334155; }
  </style>
  <rect width="100%" height="100%" fill="#ffffff"/>
  <text x="40" y="34" class="title">Final health by scenario</text>
  
    
    <line x1="80" y1="450" x2="900" y2="450" stroke="#64748b" stroke-width="2"/>
    <line x1="80" y1="70" x2="80" y2="450" stroke="#64748b" stroke-width="2"/>
    <text x="490" y="498" text-anchor="middle" class="small">Scenario</text>
    <text x="28" y="260" transform="rotate(-90 28 260)" text-anchor="middle" class="small">Final health</text>
  
    
      <rect x="73.11764705882354" y="380.9090909090909" width="28" height="69.0909090909091" fill="#2563eb"/>
      <rect x="107.11764705882354" y="450" width="28" height="0" fill="#dc2626"/>
      <text x="104.11764705882354" y="476" text-anchor="middle" class="tiny">standard-mcts-r1</text>
    
      <rect x="121.35294117647061" y="380.9090909090909" width="28" height="69.0909090909091" fill="#2563eb"/>
      <rect x="155.3529411764706" y="450" width="28" height="0" fill="#dc2626"/>
      <text x="152.3529411764706" y="476" text-anchor="middle" class="tiny">standard-mcts-r2</text>
    
      <rect x="169.58823529411765" y="450" width="28" height="0" fill="#2563eb"/>
      <rect x="203.58823529411765" y="380.9090909090909" width="28" height="69.0909090909091" fill="#dc2626"/>
      <text x="200.58823529411765" y="476" text-anchor="middle" class="tiny">standard-mcts-r3</text>
    
      <rect x="217.8235294117647" y="450" width="28" height="0" fill="#2563eb"/>
      <rect x="251.8235294117647" y="380.9090909090909" width="28" height="69.0909090909091" fill="#dc2626"/>
      <text x="248.8235294117647" y="476" text-anchor="middle" class="tiny">hybrid-heuristic-r1</text>
    
      <rect x="266.05882352941177" y="450" width="28" height="0" fill="#2563eb"/>
      <rect x="300.05882352941177" y="380.9090909090909" width="28" height="69.0909090909091" fill="#dc2626"/>
      <text x="297.05882352941177" y="476" text-anchor="middle" class="tiny">hybrid-heuristic-r2</text>
    
      <rect x="314.29411764705884" y="450" width="28" height="0" fill="#2563eb"/>
      <rect x="348.29411764705884" y="380.9090909090909" width="28" height="69.0909090909091" fill="#dc2626"/>
      <text x="345.29411764705884" y="476" text-anchor="middle" class="tiny">hybrid-heuristic-r3</text>
    
      <rect x="362.52941176470586" y="380.9090909090909" width="28" height="69.0909090909091" fill="#2563eb"/>
      <rect x="396.52941176470586" y="450" width="28" height="0" fill="#dc2626"/>
      <text x="393.52941176470586" y="476" text-anchor="middle" class="tiny">risk-aware-r1</text>
    
      <rect x="410.7647058823529" y="450" width="28" height="0" fill="#2563eb"/>
      <rect x="444.7647058823529" y="380.9090909090909" width="28" height="69.0909090909091" fill="#dc2626"/>
      <text x="441.7647058823529" y="476" text-anchor="middle" class="tiny">risk-aware-r2</text>
    
      <rect x="459" y="450" width="28" height="0" fill="#2563eb"/>
      <rect x="493" y="380.9090909090909" width="28" height="69.0909090909091" fill="#dc2626"/>
      <text x="490" y="476" text-anchor="middle" class="tiny">risk-aware-r3</text>
    
      <rect x="507.2352941176471" y="380.9090909090909" width="28" height="69.0909090909091" fill="#2563eb"/>
      <rect x="541.2352941176471" y="450" width="28" height="0" fill="#dc2626"/>
      <text x="538.2352941176471" y="476" text-anchor="middle" class="tiny">exploratory-r1</text>
    
      <rect x="555.4705882352941" y="380.9090909090909" width="28" height="69.0909090909091" fill="#2563eb"/>
      <rect x="589.4705882352941" y="450" width="28" height="0" fill="#dc2626"/>
      <text x="586.4705882352941" y="476" text-anchor="middle" class="tiny">exploratory-r2</text>
    
      <rect x="603.7058823529412" y="380.9090909090909" width="28" height="69.0909090909091" fill="#2563eb"/>
      <rect x="637.7058823529412" y="450" width="28" height="0" fill="#dc2626"/>
      <text x="634.7058823529412" y="476" text-anchor="middle" class="tiny">exploratory-r3</text>
    
      <rect x="651.9411764705882" y="380.9090909090909" width="28" height="69.0909090909091" fill="#2563eb"/>
      <rect x="685.9411764705882" y="450" width="28" height="0" fill="#dc2626"/>
      <text x="682.9411764705882" y="476" text-anchor="middle" class="tiny">high-budget-r1</text>
    
      <rect x="700.1764705882352" y="380.9090909090909" width="28" height="69.0909090909091" fill="#2563eb"/>
      <rect x="734.1764705882352" y="450" width="28" height="0" fill="#dc2626"/>
      <text x="731.1764705882352" y="476" text-anchor="middle" class="tiny">high-budget-r2</text>
    
      <rect x="748.4117647058823" y="380.9090909090909" width="28" height="69.0909090909091" fill="#2563eb"/>
      <rect x="782.4117647058823" y="450" width="28" height="0" fill="#dc2626"/>
      <text x="779.4117647058823" y="476" text-anchor="middle" class="tiny">high-budget-r3</text>
    
      <rect x="796.6470588235294" y="311.8181818181818" width="28" height="138.1818181818182" fill="#2563eb"/>
      <rect x="830.6470588235294" y="450" width="28" height="0" fill="#dc2626"/>
      <text x="827.6470588235294" y="476" text-anchor="middle" class="tiny">wide-arena-example</text>
    
      <rect x="844.8823529411765" y="450" width="28" height="0" fill="#2563eb"/>
      <rect x="878.8823529411765" y="277.27272727272725" width="28" height="172.72727272727272" fill="#dc2626"/>
      <text x="875.8823529411765" y="476" text-anchor="middle" class="tiny">low-health-example</text>
    
    <rect x="730" y="67" width="16" height="16" fill="#2563eb"/><text x="754" y="80" class="small">Alpha</text><rect x="730" y="93" width="16" height="16" fill="#dc2626"/><text x="754" y="106" class="small">Bravo</text>
  
</svg>
